# xmcd CD database file
#
# Track frame offsets:
#	150
#	19583
#	41527
#	60623
#	81515
#	97600
#	120356
#	138421
#	149750
#	162547
#	178239
#
# Disc length: 3004 seconds
#
# Revision: 0
# Processed by: cddbd v1.5.1PL2 Copyright (c) Steve Scherf et al.
# Submitted via: CDex 1.51
#
DISCID=940bba0b
DTITLE=Trionova - Poplounge
DYEAR=2005
DGENRE=Jazz
TTITLE0=Human Racing
TTITLE1=I Still Haven't Found
TTITLE2=Fly Away
TTITLE3=Just The Two Of Us
TTITLE4=Norwegian Wood
TTITLE5=Creepin
TTITLE6=I Was Made For Loving You
TTITLE7=Blackbird
TTITLE8=Fragile
TTITLE9=Imagine
TTITLE10=What A Wonderful World
EXTD=YEAR: 2005
EXTT0=
EXTT1=
EXTT2=
EXTT3=
EXTT4=
EXTT5=
EXTT6=
EXTT7=
EXTT8=
EXTT9=
EXTT10=
PLAYORDER=
